<svg viewBox="0 0 429 209" xmlns="http://www.w3.org/2000/svg" class="emberconf-logo virtual-logo"><g fill="none" fill-rule="evenodd"><path d="M92.003 74.468c2.342 3.485 9.472 7.574 10.07 7.888.272-.197 7.117-5 4.881-12.573-4.168 1.976-9.68 1.15-11.55.068" fill="#EE9A37"></path><path d="M91.538 67.486c.815-1.067 1.222-3.271 2.073-2.858 2.573 1.26 2.618 8.168.376 11.248-.195.265-.401.532-.614.776a353.724 353.724 0 01-3.841-9.081c.85.303 1.604.447 2.006-.085z" fill="#EE9A37" fill-rule="nonzero"></path><g opacity=".9" fill-rule="nonzero"><path d="M72.735 31.403s-17.05 3.654-37.754 17.102S.69 64.035.69 64.035L14.76 76.58l.41 19.426S28 94.486 49.46 80.474c21.463-14.012 37.75-17.103 37.75-17.103L72.736 31.403z" fill="#FBCA4F"></path><path d="M28.02 65.284l.171 13.17-3.11 1.557-5.851-10.32 2.831-1.417 3.523 7.15-.593-8.624 3.029-1.516zm2.957-1.85l3.663 11.542-2.693 1.524-3.635-11.555 2.665-1.51zm9.347-.784c.481 1.3.608 2.937-.472 3.827l3.515 3.197-2.907 1.806-3.18-3.71 1.686 4.638-2.624 1.634-4.104-11.395 3.065-1.907c3.33-2.072 4.492.497 5.021 1.911zm5.812-8.18l.888 2.793-1.888 1.06 2.736 8.76-2.667 1.494-2.735-8.759-1.867 1.052-.874-2.8 6.407-3.6zm-9.713 8.91l-.599.372.917 2.525.378-.235c.675-.421.875-.98.518-1.933-.368-1.015-.712-1.042-1.215-.728zM55.12 50.116l1.737 6.938c.862 3.452.395 5.41-2.397 6.772-2.828 1.375-4.49.216-5.359-3.252l-1.682-6.697 2.793-1.364 1.64 6.822c.391 1.641.86 2.05 1.567 1.726.755-.35.989-.988.656-2.487l-1.75-7.08 2.795-1.378zm7.267-2.89l4.985 10.761-2.864 1.146-.764-1.782-2.351.965-.093 2.135-3.035 1.232.88-13.14 3.242-1.318zm7.074-2.434l.995 9.22 2.707-.89.29 2.826-5.572 1.837-1.339-12.031 2.92-.962zm-8.2 6.3l.054 4.391 1.597-.571-1.651-3.82z" fill="#110A22"></path><path d="M71.382 26.668a1.983 1.983 0 012.594.931l.028.061 24.063 53.294a1.983 1.983 0 01-3.586 1.691l-.028-.06L70.39 29.291a1.983 1.983 0 01.991-2.623z" fill="#B48984"></path></g><path d="M90.006 77.553a1.653 1.653 0 002.769-.64c.465-.999-.93-2.227-1.064-2.597-.342-.958.764-1.397.238-2.826-.375-1.047-1.984-.932-2.098-1.163a14.8 14.8 0 00-.1-2.6c-.298-.71-.955-1.28-1.567-.919-2.395 1.358-3.987 6.302 1.822 10.744z" fill="#EE9A37" fill-rule="nonzero"></path><path d="M108.51 69.229a48.745 48.745 0 00-7.032 1.623c2.205 5.324.476 7.663-1.405 10.293l4.403 4.012 3.1-10.624.934-5.304z" fill="#46858F"></path><path fill="#EE9A37" d="M144.398 60.944l-29.656 6.846 3.846 16.659 29.656-6.847z"></path><path d="M166.97 69.813c.824 3.568-4.25 6.277-4.25 6.277s-1.862-5.317-5.633-6.8c-3.77-1.486-7.268-10.342-7.268-10.342 9.786.474 15.095 4.446 17.151 10.865" fill="#46858F"></path><path d="M164.504 65.051a14.92 14.92 0 012.466 4.762c.824 3.568-3.937 7.632-3.937 7.632s-.376-4.537-3.191-6.584l4.662-5.81z" fill="#EE9A37"></path><path d="M112.43 65.542l19.313 13.417 15.913-21.88c7.384 2.494 21.27 26.815 23.208 39.436a340.11 340.11 0 01-33.967 9.892 196.261 196.261 0 01-32.473 4.74c-4.686-11.95-3.682-37.989 8.006-45.605z" fill="#46858F"></path><path d="M132.105 80.523a1.62 1.62 0 00.942-.62l15.9-21.877a1.605 1.605 0 10-2.585-1.843l-14.994 20.569L112.997 64.3a1.611 1.611 0 10-1.827 2.655l19.674 13.334a1.64 1.64 0 001.26.233z" fill="#1D2946" fill-rule="nonzero"></path><path d="M134.222 14.06c7.74-.934 10.804-10.33 16.965-8.115-3.111 2.06-3.255 7.89-7.488 14.552-.982 1.557-11.594-6.194-9.478-6.438" fill="#EE9A37"></path><path d="M141.15 18.707c5.303-.286 7.001-14.55 10.026-12.809 8.744 4.998.87 20.995-6.931 20.819-4.353-.093-4.168-8.007-3.083-8.062" fill="#E54D3A"></path><path d="M88.627 21.157c3.177-3.577 9.552-2.914 14.796-1.55 2.986.776 6.636-.433 6.96.126.751 1.352-2.707 4.554-5.79 4.778-3.085.224-8.752-5.032-15.966-3.354" fill="#EE9A37"></path><path d="M104.98 23.653c-2.759 1.528-14.029-8.231-17.68-.896-2.403 4.812 7.097 13.198 13.375 13.59 6.277.395 5.77-13.533 4.316-12.697" fill="#E54D3A"></path><path d="M121.004 8.13c24.357-5.013 26.393 12.21 27.408 16.66 1.605 6.951 8.997 17.141 9.723 20.341 2.942 12.743-16.304 21.396-25.735 23.561-16.769 3.847-35.112.553-37.711-10.707-.589-2.548 5.082-16.62 4.028-27.895-.485-5.49 3.882-18.174 22.287-21.96" fill="#EE9A37"></path><path d="M125.66 43.356c9.522-2.198 22.778 11.09 28.984-5.472a32.861 32.861 0 013.52 7.264c2.942 12.744-16.304 21.396-25.736 23.562-16.797 3.829-35.14.535-37.74-10.725a9.94 9.94 0 01.378-3.174c9.798 9.195 19.12-8.88 30.56-11.496" fill="#FDF7F0"></path><path d="M124.18 44.295a7.264 7.264 0 014.061-.804c.485.304 1.722 1.75.88 2.653-.282.308-.53-.659-1.292-.313-.896.402-.117 1.504-.84 1.647-1.159.267-.302-1.309-1.373-1.245-.76.041-.77.788-1.039.788-1.133.055-1.073-2.01-.385-2.729" fill="#E54D3A"></path><path d="M139.362 47.269a.511.511 0 01.734-.047.535.535 0 01.038.747 17.62 17.62 0 01-5.19 3.42c-.125 1.516-.36 5.89-.538 6.334-.337.81-7.335 3.268-8.223 3.12-.67-.102-4.287-3.453-5.507-4.928a17.168 17.168 0 01-6.291.231.523.523 0 01-.39-.628.523.523 0 01.633-.38c2.012.269 4.056.17 6.033-.294a.464.464 0 01.174-.04 70.015 70.015 0 0010.785-3.124c3.439-1.331 6.412-2.933 7.742-4.411zm-5.5 4.662c-.61.263-1.29.542-2.034.811a61.823 61.823 0 01-9.951 2.981 35.31 35.31 0 004.45 4.11 40.91 40.91 0 007.117-2.522c.085-.215.288-3.459.418-5.38z" fill="#1D2946" fill-rule="nonzero"></path><path d="M128.291 55.23l2.34 3.743c.135.213.014.484-.262.61a.594.594 0 01-.752-.145l-1.677-3.98a.191.191 0 01.132-.226.214.214 0 01.247.066l-.028-.068z" fill="#1D2946"></path><path d="M139.877 11.18C133.423 7.007 138.12 1.932 137.13.6c2.461 1.31 5.558 4.732 5.483 7.898-.074 3.165-2.303 2.971-2.771 2.69" fill="#46858F"></path><path d="M140.004 10.198c-.498-7.706 6.385-6.855 6.859-8.453.405 2.761-.502 7.29-3.059 9.113-2.555 1.822-3.768-.094-3.811-.657" fill="#6EA952"></path><path d="M141.115 9.881c5.946-5.95 9.242-1.243 10.631-1.515-.356 3.742-8.59 5.972-9.24 5.586-.65-.387-2.21-3.284-1.427-4.063" fill="#2F3E4A"></path><path d="M141.732 10.812c4.287-1.673 7.069 6.36 7.826 6.735-3.082 1.126-6.742-1.616-7.374-2.19-2.378-2.21-.998-4.321-.45-4.534" fill="#FDF7F0"></path><path d="M122.707 36.643a1.962 1.962 0 012.847-1.195c1.904 1.587 2.959 4.04 6.795 6.656 4.345 2.963 14.794-.085 17.486-5.868 1.619-3.558 2.486-9.42 2.723-10.243a3.103 3.103 0 00-2.482-2.928c-1.367-.003-11.116.845-24.313 9.382a8.87 8.87 0 01-4.26 1.045c-1.085.056-11.328-3.668-26.111 3.173a2.818 2.818 0 00-.807 3.749c.93.689 4.328 5.688 7.209 7.756 6.619 4.78 16.61.119 18.176-2.976a31.233 31.233 0 002.737-8.55" fill="#1D2946"></path><path d="M104.404 46.847c1.968 1.229 8.861 1.383 12.75-2.223 2.195-2.02 2.593-7.322.722-8.5-3.658-2.317-10.517-1.795-16.153 1.751-.672.424-4.687 4.377 2.681 8.972m42.179-9.738c-1.19 1.984-7.235 5.234-12.374 3.797-2.859-.805-5.628-5.351-4.493-7.248 2.205-3.718 8.548-6.366 15.176-5.773.798.073 6.17 1.773 1.69 9.224" fill="#FDF7F0"></path><path d="M111.307 41.02c.221 1.534-.178 2.872-.921 2.983-.744.11-1.524-1.053-1.814-2.571-.29-1.52.178-2.873.922-2.984.742-.11 1.521 1.04 1.756 2.585m28.87-7.08c.6 1.435.52 2.833-.172 3.115-.691.28-1.722-.64-2.322-2.076-.6-1.435-.517-2.821.172-3.115.688-.292 1.721.64 2.322 2.075" fill="#1D2946"></path><path d="M110.53 39.185a.393.393 0 10-.762.189.394.394 0 10.752-.235m28.59-6.918a.393.393 0 10-.765.177.38.38 0 00.489.265.392.392 0 00.265-.488" fill="#FDF7F0"></path><path d="M143.495 18.238c.501 1.324 3.042 3.239 6.763 2.868-2.777-.933-4.95-6.641-6.097-7.487" fill="#1D2946"></path><path d="M145.424 15.39l-.897.073c.485 7.391-16.673 10.34-29.597 17.094a24.408 24.408 0 006.203-7.008c-5.623 4.446-11.068 9.192-21.134 11.516.86-.393 11.745-4.724 13.977-10.914.025-.42-6.193 7.531-15.634 9.711 1.85-1.074 9.262-6.336 9.09-8.565-3.907 4.22-9.844 7.836-9.874 7.55-.715-6.643 2.32-13.787 3.377-15.556 6.87-11.311 34.66-20.948 44.489-3.902z" fill="#1D2946"></path><g fill-rule="nonzero"><path fill="#E15D44" d="M210.76 43L45 107.693l6.427 65.537 184.224 35.637 82.484-40.306-15.381-53.973z"></path><path d="M244.688 168.354h50.261l-50.26 11.07v-11.07zm-75.82 0v11.337l-51.47-11.337h51.47zm21.736 3.805c-.137.722-.557 1.142-1.261 1.258h-1.553c-.744-.076-1.162-.488-1.26-1.23v-1.17c-.137-1.467-.938-2.29-2.404-2.464-1.543.175-2.383.997-2.52 2.464v9.405c.137 1.525.977 2.356 2.52 2.493 1.466-.137 2.267-.968 2.404-2.493v-1.259c.098-.742.538-1.152 1.32-1.233h1.436c.741.1 1.181.51 1.318 1.233v1.259c-.45 3.909-2.61 6.04-6.478 6.39-3.947-.313-6.077-2.443-6.39-6.39v-9.496c.295-3.947 2.424-6.124 6.39-6.536 3.91.412 6.068 2.589 6.478 6.536v1.233zm15.715-1.29v9.553c-.41 3.908-2.57 6.039-6.478 6.39-3.907-.371-6.046-2.5-6.418-6.39v-9.552c.332-3.93 2.472-6.088 6.418-6.48 3.929.392 6.088 2.55 6.478 6.48zm-3.957.117c-.158-1.525-.996-2.356-2.521-2.493-1.523.157-2.354.988-2.49 2.493v9.464c.136 1.525.967 2.339 2.49 2.437 1.525-.098 2.363-.912 2.521-2.437v-9.464zm19.737 14.536c-.019.686-.37 1.027-1.054 1.027h-1.875c-.803.04-1.359-.302-1.673-1.027a1177.11 1177.11 0 01-4.336-10.316v10.112c-.078.76-.488 1.172-1.232 1.231h-1.495c-.703-.06-1.093-.431-1.172-1.114v-19.987c.04-.59.372-.853.997-.793h1.847c.782-.06 1.358.284 1.729 1.024 1.406 3.5 2.843 6.977 4.307 10.437v-10.23c.08-.723.49-1.133 1.233-1.231h1.524c.683.057 1.093.429 1.23 1.114v14.36c-.018 1.759-.03 3.508-.03 5.247v.146zm14.588-20.898c.722.12 1.142.54 1.26 1.262v1.524c-.118.781-.547 1.192-1.29 1.23h-6.975c-.39.038-.607.256-.646.645v3.782c.039.39.255.594.646.617h4.426c.721.097 1.124.497 1.202 1.197v1.585c-.078.764-.49 1.153-1.232 1.173h-4.396c-.39.057-.607.285-.646.674v7.062c-.057.742-.458 1.156-1.202 1.233h-1.494c-.702-.038-1.094-.4-1.171-1.086v-19.664c.017-.684.36-1.097 1.025-1.234h10.493zm41.423-33.397s3.193-1.325 3.553 2.229c.354 3.553-1.776 4.727-1.776 4.727s-8.792 6.53-15.538 4.576c-6.753-1.954-7.107-14.207-7.107-14.207h-.623l-6.838 18.842s-2.747 9.487-6.838 7.802c-4.084-1.692-3.992-6.484-3.992-6.484s-6.4 7.369-18.115 6.484c-10.26-.78-13.57-9.172-13.57-9.172s-6.859 5.127-26.133 8.923c-8.622.944-14.732-4.262-14.732-4.262-.8.8-5.953 3.396-5.953 3.396s-7.369 3.422-10.214-1.73c-2.839-5.154-.977-21.314-.977-21.314h-.525s-4.268 8.614-6.483 16.43c-2.223 7.814-4.977 7.283-4.977 7.283s-5.06.446-6.215-3.822c-1.154-4.262 1.862-20.068 1.862-20.068l-.439.091s-.269-.445-4.176 7.815c-6.661 16.161-8.26 16.876-12.077 16.174-3.822-.701-3.999-5.507-3.999-5.507l-5.238 2.937s-12.778 5.527-19.439.466c-4.438-3.364-5.953-7.592-6.477-10.077 0 0-5.678-.662-9.323-2.085-3.639-1.416.02-6.084.02-6.084s1.095-1.777 3.232 0c2.13 1.777 6.058.97 6.058.97.36-2.793.99-6.497 2.734-10.391 3.638-8.169 9.257-10.929 13.787-11.02 4.53-.086 7.723 1.14 10.477 5.047 6.13 15.184-16.339 22.874-16.339 22.874s-.623 3.973 5.5 3.882c6.13-.086 15.453-6.747 15.453-6.747.446-5.06 4-20.953 4.976-23.352.977-2.4 4.707-1.954 4.707-1.954s2.924-.623 3.462 2.485c.531 3.114-2.13 15.721-2.13 15.721l.439.531c.268-1.239 6.752-12.076 6.752-12.076s3.73-6.484 9.415-6.215c5.677.262-.269 17.668-.269 17.668l.44.538.452-.806c.708-1.954 9.139-14.738 9.139-14.738s3.2-3.73 6.13-2.84c2.93.886 3.107 2.217 3.29 4.702.171 2.49-2.313 17.229-2.313 17.229s-1.423 9.677 1.776 9.506c3.193-.177 6.661-3.553 6.661-3.553s2.485-19.006 4.17-34.721c1.691-15.722 8.975-26.29 8.975-26.29s2.13-3.285 7.756-5.5c3.704-1.312 7.743-.446 9.644 7.63 2.828 11.997-5.242 25.556-10.395 32.451-.747 1-1.84 2.723-1.668 2.833.174.111 4.517-4.994 8.87-2.247 13.316 8.346 2.393 26.729 2.393 26.729 3.908-1.246 10.923-5.946 10.923-5.946s.144-2.033.222-2.492c2.387-13.656 10.562-18.586 12.096-19.74 1.58-1.187 15.571-6.543 16.187 7.933.623 14.476-17.491 19.537-17.491 19.537s1.6 4.176 8.26 3.107c6.655-1.062 14.293-7.546 14.293-7.546.268-5.953 4.176-20.16 4.976-22.205.8-2.039 5.684-2.13 6.215-.977.708 2.308.085 12.437.085 12.437l.538-.177c1.953-5.776 6.038-10.306 6.038-10.306s3.284-3.193 5.946-2.42c2.669.78 1.692 10.064 1.692 10.064s-1.423 10.123 3.107 10.569c4.53.445 9.677-3.547 9.677-3.547zm-177.866-8.89c-2.393-2.315-9.323 2.307-9.592 12.876 0 0 2.046.623 6.57-2.491 4.53-3.108 5.415-8.078 3.022-10.385zM188.6 85.839c-1.514-7.992-7.815 8.438-7.815 8.438s-5.238 18.022-5.415 23.352c0 0 14.738-23.798 13.23-31.79zm-14.568 60.65s10.13 4.439 14.3-6.484c4.175-10.922-1.155-15.007-1.155-15.007s-7.723-4.261-11.014 6.661c-3.285 10.923-2.13 14.83-2.13 14.83zm44.936-21.399c-3.639 6.655-2.662 10.123-2.662 10.123s5.146.354 8.7-4.707c3.553-5.062.446-8.438.446-8.438s-2.846-3.639-6.484 3.022zm-58.295-33.15v7.377c-.303 3.042-1.975 4.69-5.017 4.949-3.056-.273-4.72-1.922-4.992-4.949v-7.376c.272-3.042 1.936-4.72 4.992-5.038 3.042.317 4.714 1.996 5.017 5.038zm-3.064.137c-.122-1.195-.772-1.853-1.953-1.975-1.195.137-1.846.794-1.951 1.975v7.263c.12 1.18.771 1.824 1.951 1.929 1.181-.105 1.831-.749 1.953-1.929v-7.263zm-9.69 8.988c.56.076.893.379 1 .908v1.18c-.107.576-.447.893-1.022.954h-7.99c-.576-.06-.893-.378-.953-.954v-1.18a.8.8 0 01.136-.454 204.424 204.424 0 006.582-8.784c0-.332.008-.657.023-.976-.227-1.028-.855-1.58-1.884-1.656-1.196.106-1.84.757-1.929 1.952v.863c-.076.574-.4.892-.976.953h-1.157c-.591-.077-.893-.4-.908-.976v-.954c.241-3.056 1.898-4.736 4.97-5.04 3.04.32 4.705 1.999 4.994 5.04-.016.424-.046.84-.092 1.248a4.954 4.954 0 01-.908 1.543 613.155 613.155 0 01-4.63 6.333h4.744zm-10.824-9.124v7.376c-.303 3.042-1.975 4.69-5.016 4.949-3.057-.273-4.721-1.922-4.993-4.949v-7.376c.272-3.042 1.936-4.72 4.993-5.038 3.041.317 4.713 1.996 5.016 5.038zm-3.064.136c-.121-1.195-.771-1.853-1.952-1.975-1.195.137-1.847.794-1.952 1.975v7.263c.12 1.18.772 1.824 1.952 1.929 1.18-.105 1.83-.749 1.952-1.929v-7.263zm-9.689 8.988c.56.076.892.379.998.908v1.18c-.106.576-.445.893-1.022.954h-7.988c-.576-.06-.893-.378-.954-.954v-1.18a.8.8 0 01.137-.454 204.424 204.424 0 006.582-8.784c0-.332.008-.657.022-.976-.226-1.028-.855-1.58-1.883-1.656-1.195.106-1.84.757-1.929 1.952v.863c-.077.574-.402.892-.976.953h-1.159c-.59-.077-.892-.4-.908-.976v-.954c.243-3.056 1.9-4.736 4.972-5.04 3.041.32 4.705 1.999 4.992 5.04-.015.424-.044.84-.09 1.248a4.954 4.954 0 01-.908 1.543 632.587 632.587 0 01-4.63 6.333h4.744z" fill="#F0F6F8"></path></g></g></svg>
